PathFileType	4	(X/Y/Z)	c:/Users/goper/Files/vsCode/490R/osim_files/C04/C04_Static.trc
DataRate	CameraRate	NumFrames	NumMarkers	Units                	OrigDataRate	OrigDataStartFrame	OrigNumFrames
250.00	250.00	10	36	mm	250.0	904	1445
                Frame#	Time	LPSIS			LASIS			LTH1			LTH2			LTH3			LTH4			LLFE			LMFE			LSH1			LSH2			LSH3			LSH4			LLMAL			LMMAL			LCAL			LMTP5			LTOE			LMTP1			RPSIS			RASIS			RTH1			RTH2			RTH3			RTH4			RLFE			RMFE			RSH1			RSH2			RSH3			RSH4			RLMAL			RMMAL			RCAL			RMTP1			RTOE			RMTP5		
		X1	Y1	Z1	X2	Y2	Z2	X3	Y3	Z3	X4	Y4	Z4	X5	Y5	Z5	X6	Y6	Z6	X7	Y7	Z7	X8	Y8	Z8	X9	Y9	Z9	X10	Y10	Z10	X11	Y11	Z11	X12	Y12	Z12	X13	Y13	Z13	X14	Y14	Z14	X15	Y15	Z15	X16	Y16	Z16	X17	Y17	Z17	X18	Y18	Z18	X19	Y19	Z19	X20	Y20	Z20	X21	Y21	Z21	X22	Y22	Z22	X23	Y23	Z23	X24	Y24	Z24	X25	Y25	Z25	X26	Y26	Z26	X27	Y27	Z27	X28	Y28	Z28	X29	Y29	Z29	X30	Y30	Z30	X31	Y31	Z31	X32	Y32	Z32	X33	Y33	Z33	X34	Y34	Z34	X35	Y35	Z35	X36	Y36	Z36

904	3.61200	-354.87061	977.53094	417.30963	-189.77922	963.00159	339.21078	-325.25040	730.48779	277.98050	-321.04230	668.80249	281.76047	-260.62488	740.27295	264.48422	-246.74287	678.89795	267.47638	-298.40195	463.10190	280.14417	-282.45953	436.94019	393.19751	-362.21457	363.97873	268.52655	-370.88669	316.81363	267.48657	-310.85229	361.55685	258.10608	-311.32556	314.31689	255.25082	-347.85019	76.91315	252.40475	-324.14627	91.05740	343.56332	-404.82138	48.24618	312.85895	-220.34088	21.46841	210.49989	-186.42059	47.54937	258.13910	-205.91127	21.51407	317.30072	-353.91455	980.25690	491.85956	-184.57735	958.29230	552.44232	-310.97894	747.77924	634.57904	-313.74173	684.46698	630.78265	-246.79938	751.18365	637.47583	-236.20341	689.66333	635.48877	-282.49741	465.81796	620.32080	-284.05701	448.18423	508.63416	-360.97061	339.57193	645.98926	-354.88876	294.31735	647.82623	-299.31244	340.26508	648.74921	-302.52292	293.26236	652.42627	-336.49878	80.48473	648.33435	-314.23895	87.63634	559.04401	-392.19467	48.09624	594.68860	-190.22792	31.25384	586.28265	-166.76343	47.30872	635.52844	-209.13805	17.96810	690.76508
905	3.61600	-354.82675	977.50232	417.26794	-189.73502	963.02258	339.20905	-325.18707	730.52258	277.97424	-321.01672	668.82483	281.76218	-260.55411	740.28540	264.48520	-246.65936	678.94653	267.46585	-298.34247	463.14914	280.13104	-282.41846	436.97202	393.21048	-362.20407	364.00449	268.56406	-370.91495	316.84900	267.51346	-310.82269	361.56393	258.09387	-311.29810	314.33084	255.24135	-347.88251	76.91551	252.42824	-324.14612	91.05328	343.58228	-404.79971	48.27345	312.89673	-220.33139	21.49019	210.49591	-186.41223	47.55891	258.15726	-205.93665	21.50999	317.30450	-353.92609	980.24609	491.85544	-184.55460	958.30060	552.45764	-310.95917	747.77484	634.59674	-313.72009	684.45007	630.79578	-246.77151	751.18420	637.44147	-236.16887	689.67322	635.49908	-282.46970	465.80310	620.34399	-284.02658	448.17130	508.63736	-360.95990	339.57288	645.97095	-354.89838	294.32898	647.82959	-299.28714	340.29218	648.73828	-302.53110	293.25439	652.42639	-336.51602	80.46306	648.32141	-314.22900	87.65670	559.07172	-392.20209	48.13380	594.72339	-190.22455	31.29940	586.30859	-166.74002	47.32749	635.54669	-209.16356	17.94177	690.76593
906	3.62000	-354.76459	977.48169	417.23730	-189.70966	963.04816	339.21069	-325.15594	730.52380	278.03653	-321.05460	668.75610	281.85696	-260.51184	740.30463	264.48209	-246.61015	678.94580	267.47672	-298.29749	463.17526	280.12576	-282.38690	436.97421	393.20767	-362.15558	364.07944	268.53650	-370.87943	316.88077	267.53705	-310.79584	361.56317	258.10300	-311.27203	314.36139	255.25323	-347.89462	76.94752	252.45726	-324.17090	91.05708	343.59183	-404.81396	48.31110	312.89615	-220.33582	21.50810	210.51302	-186.40556	47.57627	258.16492	-205.93034	21.52610	317.30878	-353.91693	980.24884	491.84778	-184.49940	958.30963	552.47253	-310.89542	747.74384	634.57959	-313.66251	684.44678	630.81049	-246.76761	751.17871	637.47150	-236.10553	689.66919	635.48352	-282.40994	465.81351	620.33276	-283.96494	448.18988	508.62088	-360.94165	339.56033	645.98218	-354.88702	294.31067	647.83636	-299.21991	340.28372	648.73224	-302.46429	293.27744	652.43066	-336.50302	80.45140	648.32745	-314.22714	87.67996	559.09412	-392.18378	48.16245	594.77338	-190.20854	31.31623	586.32855	-166.73489	47.33924	635.55579	-209.15999	17.93589	690.75482
907	3.62400	-354.76315	977.45892	417.16992	-189.62245	963.07922	339.22223	-325.06940	730.56750	277.98047	-320.96060	668.82745	281.82263	-260.48465	740.30951	264.47839	-246.58467	678.95972	267.46765	-298.25867	463.18997	280.13306	-282.35739	436.98050	393.19427	-362.10245	364.13397	268.53848	-370.85562	316.90469	267.52252	-310.75986	361.59937	258.10300	-311.25058	314.36716	255.26205	-347.87268	76.99203	252.44864	-324.12964	91.07312	343.58752	-404.80634	48.33456	312.89130	-220.31236	21.53666	210.52396	-186.41814	47.56842	258.17014	-205.91089	21.52863	317.31293	-353.88934	980.25256	491.79199	-184.42114	958.31079	552.47003	-310.86679	747.74963	634.57672	-313.60831	684.42963	630.79321	-246.67474	751.14380	637.44623	-236.03236	689.68616	635.48303	-282.41599	465.77853	620.30060	-283.92575	448.20563	508.62070	-360.93704	339.55557	645.93689	-354.86545	294.28064	647.79651	-299.22266	340.25601	648.73779	-302.46771	293.23026	652.41052	-336.52057	80.43070	648.31580	-314.18985	87.68733	559.08313	-392.16974	48.18477	594.78137	-190.17908	31.33230	586.34473	-166.71948	47.34764	635.56232	-209.16949	17.91379	690.75909
908	3.62800	-354.69073	977.46423	417.11829	-189.59729	963.08575	339.22180	-325.05127	730.54382	278.01636	-320.96506	668.81140	281.84344	-260.39468	740.30658	264.48447	-246.53241	678.94611	267.46643	-298.19739	463.20035	280.15323	-282.30685	437.00549	393.20261	-362.07129	364.13141	268.50955	-370.83746	316.90930	267.54034	-310.73010	361.58054	258.11374	-311.24216	314.34250	255.25964	-347.90292	76.97338	252.49672	-324.15799	91.04211	343.59015	-404.83762	48.33876	312.88852	-220.32140	21.53096	210.53227	-186.40546	47.55938	258.17310	-205.92644	21.49263	317.31488	-353.86426	980.26556	491.72153	-184.38632	958.29144	552.47992	-310.82596	747.75043	634.59155	-313.55334	684.42963	630.78973	-246.62675	751.13947	637.44305	-235.97676	689.67889	635.47797	-282.36871	465.78656	620.31995	-283.88983	448.16064	508.61121	-360.87173	339.56760	645.95105	-354.81302	294.28149	647.84149	-299.20618	340.23001	648.74207	-301.81757	293.24414	652.67084	-336.48807	80.42565	648.31879	-314.18637	87.68318	559.09857	-392.17322	48.17570	594.82239	-190.17723	31.31594	586.36102	-166.73065	47.32393	635.56921	-209.16779	17.90278	690.74268
909	3.63200	-354.69174	977.51111	417.11044	-189.56648	963.06305	339.24075	-325.02719	730.53949	277.99728	-320.90237	668.81683	281.82770	-260.36688	740.30426	264.48334	-246.27621	678.93683	267.47168	-298.15344	463.20413	280.14612	-282.27673	436.98001	393.19171	-362.04135	364.16754	268.45959	-370.78326	316.92932	267.52731	-310.73029	361.57678	258.10297	-311.18192	314.35675	255.26019	-347.85373	77.01101	252.44437	-323.86096	91.17441	343.51431	-404.86005	48.32831	312.86536	-220.32794	21.52015	210.53856	-186.42143	47.54578	258.18484	-205.94208	21.47907	317.32263	-353.85666	980.31305	491.71451	-184.36966	958.25159	552.48511	-310.78986	747.72943	634.58966	-313.51013	684.42017	630.81244	-246.57008	751.11969	637.46570	-235.97751	689.62909	635.49725	-282.38058	465.74637	620.31006	-283.86407	448.17108	508.59222	-360.88162	339.54709	645.94049	-354.85324	294.25229	647.82410	-299.23584	340.16925	648.75043	-302.38733	293.25436	652.42004	-336.50269	80.41830	648.36780	-314.17825	87.67702	559.08398	-392.18951	48.18824	594.82257	-190.21175	31.29083	586.37909	-166.73865	47.32400	635.58289	-209.16159	17.89197	690.75824
910	3.63600	-354.61838	977.55859	417.07532	-189.51814	963.06299	339.21112	-324.93607	730.54510	277.95432	-320.91818	668.76312	281.84689	-260.30118	740.26367	264.47708	-246.42624	678.90393	267.44711	-298.14221	463.17215	280.15094	-282.23071	436.98569	393.17096	-362.01709	364.15216	268.45776	-370.75821	316.92197	267.50137	-310.67050	361.56982	258.10510	-311.18866	314.32263	255.26529	-347.84888	76.98798	252.43378	-324.15988	91.02602	343.60281	-404.81949	48.32445	312.87543	-220.31564	21.48003	210.51547	-186.40851	47.52418	258.19217	-205.97678	21.42609	317.34589	-353.83035	980.30090	491.68240	-184.38759	958.19574	552.48663	-310.74567	747.71698	634.61206	-313.52383	684.34705	630.78949	-246.50635	751.13000	637.46893	-235.96873	689.59448	635.49811	-282.38385	465.71042	620.29993	-283.83539	448.15164	508.60446	-360.85278	339.53281	645.99023	-354.82895	294.21277	647.82153	-299.23764	340.12787	648.76166	-302.42734	293.18921	652.40778	-336.51660	80.37889	648.34521	-314.18741	87.66675	559.07025	-392.18463	48.14256	594.83276	-190.22086	31.23993	586.37128	-166.73627	47.29950	635.60315	-209.20236	17.83120	690.77881
911	3.64000	-354.56494	977.53345	417.04611	-189.50319	963.02899	339.20126	-324.94846	730.48419	277.93988	-320.83972	668.73853	281.78067	-260.28516	740.25305	264.45770	-246.42326	678.88062	267.43304	-298.10181	463.15796	280.13730	-282.24402	436.94577	393.15771	-361.63226	364.38434	268.16779	-370.74802	316.89355	267.49091	-310.67548	361.52167	258.09485	-311.19260	314.29288	255.24467	-347.83432	76.96935	252.40016	-324.21503	90.98730	343.59872	-404.80246	48.33680	312.88171	-220.32341	21.46511	210.50710	-186.44479	47.48249	258.18369	-206.01610	21.37669	317.34567	-353.78003	980.28912	491.69211	-184.39314	958.16071	552.49304	-310.74554	747.66095	634.59076	-313.42789	684.35095	630.86011	-246.50182	751.08405	637.48309	-235.96431	689.56439	635.49078	-282.35281	465.69138	620.32062	-283.80524	448.13974	508.59067	-360.82916	339.51962	646.00067	-354.80243	294.20905	647.85553	-299.28561	340.03851	648.76331	-301.78339	293.15771	652.69019	-336.54306	80.33953	648.36078	-314.20367	87.62544	559.07874	-392.19391	48.08958	594.80841	-190.22548	31.20790	586.38208	-166.75186	47.26073	635.58014	-209.21481	17.80786	690.80005
912	3.64400	-354.54214	977.49365	417.11523	-189.47421	963.01752	339.17889	-324.84113	730.49115	277.84290	-320.72348	668.73407	281.70508	-260.25031	740.21283	264.43814	-246.38885	678.87372	267.42868	-298.09180	463.11884	280.12659	-282.23395	436.94217	393.14209	-361.89880	364.12411	268.36771	-370.70923	316.86792	267.46371	-310.65430	361.51797	258.07242	-311.11523	314.30109	255.22844	-347.83771	76.93605	252.37801	-324.20206	90.94776	343.59286	-404.82248	48.30191	312.84717	-220.32756	21.45067	210.49811	-186.44730	47.46525	258.16818	-206.00882	21.35303	317.32663	-353.73795	980.26660	491.70090	-184.34312	958.14612	552.47534	-310.71143	747.65955	634.57892	-313.40558	684.32404	630.81024	-246.48515	751.05927	637.45050	-235.91766	689.55017	635.47205	-282.30878	465.68112	620.31543	-283.75394	448.12857	508.55502	-360.80948	339.50494	645.96924	-354.80258	294.18561	647.84698	-299.22281	340.02802	648.73291	-301.80899	293.12936	652.69098	-336.53964	80.34224	648.34955	-314.19397	87.59547	559.04486	-392.20746	48.03164	594.79883	-190.23108	31.18830	586.35321	-166.76970	47.23633	635.58246	-209.21310	17.77820	690.79559
913	3.64800	-354.52692	977.47766	417.12283	-189.43951	962.98254	339.16626	-324.78720	730.50208	277.82382	-320.72171	668.70782	281.67944	-260.21445	740.19153	264.42508	-246.35895	678.83600	267.41061	-298.05734	463.10226	280.12091	-282.22955	436.89737	393.13934	-361.96143	364.08261	268.39273	-370.71558	316.84183	267.43872	-310.62714	361.49680	258.05841	-311.12164	314.27264	255.21812	-347.83722	76.93764	252.36435	-324.19431	90.95031	343.58609	-404.82907	48.26765	312.83832	-220.33600	21.43658	210.48538	-186.42955	47.46650	258.14529	-206.00505	21.35767	317.31287	-353.72629	980.21124	491.72421	-184.27000	958.17096	552.45428	-310.66064	747.62933	634.55347	-313.35880	684.35443	630.81598	-246.38780	751.05823	637.47461	-235.86423	689.54327	635.44141	-282.29205	465.68253	620.28870	-283.74374	448.10098	508.55182	-360.78021	339.51703	645.96417	-354.76645	294.19427	647.81464	-299.22128	340.03723	648.69891	-302.36978	293.13260	652.41473	-336.53122	80.34842	648.34058	-314.20618	87.58940	559.03253	-392.18811	48.02552	594.73718	-190.20920	31.20183	586.32892	-166.76682	47.23369	635.55322	-209.18425	17.80710	690.77655
